<svg id="visual" viewBox="0 0 900 600" width="900" height="600" xmlns="http://www.w3.org/2000/svg" xmlns:xlink="http://www.w3.org/1999/xlink" version="1.1"><g stroke-width="1" stroke-linejoin="bevel"><path d="M448.1 323L455.9 382L488.9 303Z" fill="#15384f" stroke="#001122"></path><path d="M577.7 339L568.7 321L488.9 303Z" fill="#297ea6" stroke="#001122"></path><path d="M577.7 339L488.9 303L455.9 382Z" fill="#081a28" stroke="#001122"></path><path d="M477.9 432L577.7 339L455.9 382Z" fill="#246688" stroke="#001122"></path><path d="M375.1 383L412.1 431L455.9 382Z" fill="#0c2435" stroke="#001122"></path><path d="M455.9 382L412.1 431L477.9 432Z" fill="#19435d" stroke="#001122"></path><path d="M448.1 323L375.1 383L455.9 382Z" fill="#1d4e6b" stroke="#001122"></path><path d="M561.7 234L512.9 226L488.9 303Z" fill="#205a7a" stroke="#001122"></path><path d="M389.1 206L362.3 278L448.1 323Z" fill="#0c2435" stroke="#001122"></path><path d="M448.1 323L362.3 278L375.1 383Z" fill="#112e42" stroke="#001122"></path><path d="M568.7 321L561.7 234L488.9 303Z" fill="#205a7a" stroke="#001122"></path><path d="M635.5 262L561.7 234L568.7 321Z" fill="#112e42" stroke="#001122"></path><path d="M389.1 206L448.1 323L488.9 303Z" fill="#15384f" stroke="#001122"></path><path d="M583.7 535L606.7 443L477.9 432Z" fill="#15384f" stroke="#001122"></path><path d="M477.9 432L606.7 443L577.7 339Z" fill="#246688" stroke="#001122"></path><path d="M577.7 339L635.5 262L568.7 321Z" fill="#205a7a" stroke="#001122"></path><path d="M606.7 443L644.5 358L577.7 339Z" fill="#297ea6" stroke="#001122"></path><path d="M570.7 185L474.9 182L512.9 226Z" fill="#00101c" stroke="#001122"></path><path d="M512.9 226L389.1 206L488.9 303Z" fill="#246688" stroke="#001122"></path><path d="M474.9 182L389.1 206L512.9 226Z" fill="#081a28" stroke="#001122"></path><path d="M644.5 358L635.5 262L577.7 339Z" fill="#1d4e6b" stroke="#001122"></path><path d="M561.7 234L570.7 185L512.9 226Z" fill="#246688" stroke="#001122"></path><path d="M362.3 278L315.3 385L375.1 383Z" fill="#246688" stroke="#001122"></path><path d="M301.3 450L370.1 491L412.1 431Z" fill="#0c2435" stroke="#001122"></path><path d="M282.5 332L315.3 385L362.3 278Z" fill="#00101c" stroke="#001122"></path><path d="M301.3 450L412.1 431L375.1 383Z" fill="#277297" stroke="#001122"></path><path d="M412.1 431L472.9 550L477.9 432Z" fill="#19435d" stroke="#001122"></path><path d="M635.5 262L570.7 185L561.7 234Z" fill="#19435d" stroke="#001122"></path><path d="M389.1 206L338.3 230L362.3 278Z" fill="#15384f" stroke="#001122"></path><path d="M717.4 407L678.5 331L644.5 358Z" fill="#277297" stroke="#001122"></path><path d="M644.5 358L678.5 331L635.5 262Z" fill="#00101c" stroke="#001122"></path><path d="M687.5 531L662.5 442L606.7 443Z" fill="#297ea6" stroke="#001122"></path><path d="M606.7 443L662.5 442L644.5 358Z" fill="#205a7a" stroke="#001122"></path><path d="M370.1 491L472.9 550L412.1 431Z" fill="#1d4e6b" stroke="#001122"></path><path d="M280.5 249L282.5 332L362.3 278Z" fill="#112e42" stroke="#001122"></path><path d="M315.3 385L301.3 450L375.1 383Z" fill="#0c2435" stroke="#001122"></path><path d="M256.5 391L301.3 450L315.3 385Z" fill="#0c2435" stroke="#001122"></path><path d="M472.9 550L583.7 535L477.9 432Z" fill="#1d4e6b" stroke="#001122"></path><path d="M717.4 407L700.4 301L678.5 331Z" fill="#19435d" stroke="#001122"></path><path d="M678.5 331L700.4 301L635.5 262Z" fill="#297ea6" stroke="#001122"></path><path d="M674.5 171L568.7 107L570.7 185Z" fill="#112e42" stroke="#001122"></path><path d="M338.3 230L280.5 249L362.3 278Z" fill="#277297" stroke="#001122"></path><path d="M305.3 150L280.5 249L338.3 230Z" fill="#112e42" stroke="#001122"></path><path d="M282.5 332L256.5 391L315.3 385Z" fill="#246688" stroke="#001122"></path><path d="M192.6 398L256.5 391L282.5 332Z" fill="#00101c" stroke="#001122"></path><path d="M687.5 531L699.4 452L662.5 442Z" fill="#0c2435" stroke="#001122"></path><path d="M662.5 442L717.4 407L644.5 358Z" fill="#15384f" stroke="#001122"></path><path d="M699.4 452L717.4 407L662.5 442Z" fill="#00101c" stroke="#001122"></path><path d="M474.9 182L378.1 134L389.1 206Z" fill="#1d4e6b" stroke="#001122"></path><path d="M389.1 206L305.3 150L338.3 230Z" fill="#19435d" stroke="#001122"></path><path d="M499.9 97L378.1 134L474.9 182Z" fill="#19435d" stroke="#001122"></path><path d="M568.7 107L499.9 97L570.7 185Z" fill="#19435d" stroke="#001122"></path><path d="M570.7 185L499.9 97L474.9 182Z" fill="#00101c" stroke="#001122"></path><path d="M375.1 600L506.9 600L472.9 550Z" fill="#081a28" stroke="#001122"></path><path d="M472.9 550L506.9 600L583.7 535Z" fill="#1d4e6b" stroke="#001122"></path><path d="M583.7 535L687.5 531L606.7 443Z" fill="#112e42" stroke="#001122"></path><path d="M375.1 600L472.9 550L370.1 491Z" fill="#112e42" stroke="#001122"></path><path d="M239.5 468L344.3 559L301.3 450Z" fill="#246688" stroke="#001122"></path><path d="M301.3 450L344.3 559L370.1 491Z" fill="#277297" stroke="#001122"></path><path d="M674.5 171L570.7 185L635.5 262Z" fill="#112e42" stroke="#001122"></path><path d="M745.4 219L674.5 171L635.5 262Z" fill="#277297" stroke="#001122"></path><path d="M364.3 70L305.3 150L378.1 134Z" fill="#246688" stroke="#001122"></path><path d="M378.1 134L305.3 150L389.1 206Z" fill="#081a28" stroke="#001122"></path><path d="M612.7 600L687.5 531L583.7 535Z" fill="#1d4e6b" stroke="#001122"></path><path d="M699.4 452L802.2 404L717.4 407Z" fill="#277297" stroke="#001122"></path><path d="M192.6 398L239.5 468L256.5 391Z" fill="#246688" stroke="#001122"></path><path d="M256.5 391L239.5 468L301.3 450Z" fill="#297ea6" stroke="#001122"></path><path d="M309.3 600L375.1 600L344.3 559Z" fill="#00101c" stroke="#001122"></path><path d="M344.3 559L375.1 600L370.1 491Z" fill="#277297" stroke="#001122"></path><path d="M506.9 600L612.7 600L583.7 535Z" fill="#205a7a" stroke="#001122"></path><path d="M700.4 301L745.4 219L635.5 262Z" fill="#1d4e6b" stroke="#001122"></path><path d="M833.2 284L745.4 219L700.4 301Z" fill="#1d4e6b" stroke="#001122"></path><path d="M194.6 250L192.6 398L282.5 332Z" fill="#19435d" stroke="#001122"></path><path d="M194.6 250L282.5 332L280.5 249Z" fill="#277297" stroke="#001122"></path><path d="M745.4 219L699.4 137L674.5 171Z" fill="#112e42" stroke="#001122"></path><path d="M674.5 171L654.5 56L568.7 107Z" fill="#297ea6" stroke="#001122"></path><path d="M427.1 47L364.3 70L378.1 134Z" fill="#00101c" stroke="#001122"></path><path d="M427.1 47L378.1 134L499.9 97Z" fill="#19435d" stroke="#001122"></path><path d="M523.9 0L499.9 97L568.7 107Z" fill="#246688" stroke="#001122"></path><path d="M523.9 0L427.1 47L499.9 97Z" fill="#277297" stroke="#001122"></path><path d="M221.5 182L280.5 249L305.3 150Z" fill="#00101c" stroke="#001122"></path><path d="M221.5 182L194.6 250L280.5 249Z" fill="#0c2435" stroke="#001122"></path><path d="M262.5 600L309.3 600L344.3 559Z" fill="#297ea6" stroke="#001122"></path><path d="M262.5 600L344.3 559L239.5 468Z" fill="#0c2435" stroke="#001122"></path><path d="M255.5 80L221.5 182L305.3 150Z" fill="#112e42" stroke="#001122"></path><path d="M192.6 398L191.6 472L239.5 468Z" fill="#297ea6" stroke="#001122"></path><path d="M757.4 529L802.2 404L699.4 452Z" fill="#297ea6" stroke="#001122"></path><path d="M717.4 407L802.2 404L700.4 301Z" fill="#15384f" stroke="#001122"></path><path d="M612.7 600L688.5 600L687.5 531Z" fill="#246688" stroke="#001122"></path><path d="M687.5 531L757.4 529L699.4 452Z" fill="#1d4e6b" stroke="#001122"></path><path d="M688.5 600L757.4 529L687.5 531Z" fill="#19435d" stroke="#001122"></path><path d="M213.5 562L262.5 600L239.5 468Z" fill="#205a7a" stroke="#001122"></path><path d="M700.4 59L654.5 56L699.4 137Z" fill="#19435d" stroke="#001122"></path><path d="M699.4 137L654.5 56L674.5 171Z" fill="#0c2435" stroke="#001122"></path><path d="M833.2 284L789.2 190L745.4 219Z" fill="#1d4e6b" stroke="#001122"></path><path d="M745.4 219L790.2 177L699.4 137Z" fill="#0c2435" stroke="#001122"></path><path d="M191.6 472L213.5 562L239.5 468Z" fill="#112e42" stroke="#001122"></path><path d="M900 181L790.2 177L789.2 190Z" fill="#297ea6" stroke="#001122"></path><path d="M789.2 190L790.2 177L745.4 219Z" fill="#1d4e6b" stroke="#001122"></path><path d="M605.7 0L523.9 0L568.7 107Z" fill="#297ea6" stroke="#001122"></path><path d="M347.3 0L255.5 80L364.3 70Z" fill="#00101c" stroke="#001122"></path><path d="M416.1 0L364.3 70L427.1 47Z" fill="#205a7a" stroke="#001122"></path><path d="M364.3 70L255.5 80L305.3 150Z" fill="#277297" stroke="#001122"></path><path d="M72.8 263L131.6 305L194.6 250Z" fill="#246688" stroke="#001122"></path><path d="M802.2 404L833.2 284L700.4 301Z" fill="#205a7a" stroke="#001122"></path><path d="M523.9 0L416.1 0L427.1 47Z" fill="#081a28" stroke="#001122"></path><path d="M147.6 164L194.6 250L221.5 182Z" fill="#297ea6" stroke="#001122"></path><path d="M194.6 250L131.6 305L192.6 398Z" fill="#15384f" stroke="#001122"></path><path d="M104.8 462L134.6 496L191.6 472Z" fill="#081a28" stroke="#001122"></path><path d="M191.6 472L134.6 496L213.5 562Z" fill="#112e42" stroke="#001122"></path><path d="M654.5 56L605.7 0L568.7 107Z" fill="#0c2435" stroke="#001122"></path><path d="M814.2 34L700.4 59L699.4 137Z" fill="#1d4e6b" stroke="#001122"></path><path d="M764.4 600L802.2 521L757.4 529Z" fill="#112e42" stroke="#001122"></path><path d="M757.4 529L802.2 521L802.2 404Z" fill="#00101c" stroke="#001122"></path><path d="M802.2 404L842.2 419L833.2 284Z" fill="#00101c" stroke="#001122"></path><path d="M802.2 521L842.2 419L802.2 404Z" fill="#15384f" stroke="#001122"></path><path d="M681.5 0L605.7 0L654.5 56Z" fill="#00101c" stroke="#001122"></path><path d="M416.1 0L347.3 0L364.3 70Z" fill="#081a28" stroke="#001122"></path><path d="M688.5 600L764.4 600L757.4 529Z" fill="#297ea6" stroke="#001122"></path><path d="M131.6 305L106.8 366L192.6 398Z" fill="#297ea6" stroke="#001122"></path><path d="M104.8 462L191.6 472L192.6 398Z" fill="#112e42" stroke="#001122"></path><path d="M255.5 80L147.6 164L221.5 182Z" fill="#00101c" stroke="#001122"></path><path d="M131.6 305L72.8 263L106.8 366Z" fill="#246688" stroke="#001122"></path><path d="M151.6 59L147.6 164L255.5 80Z" fill="#00101c" stroke="#001122"></path><path d="M134.6 496L192.6 600L213.5 562Z" fill="#297ea6" stroke="#001122"></path><path d="M213.5 562L192.6 600L262.5 600Z" fill="#246688" stroke="#001122"></path><path d="M106.8 366L104.8 462L192.6 398Z" fill="#246688" stroke="#001122"></path><path d="M134.6 496L49.8 600L192.6 600Z" fill="#297ea6" stroke="#001122"></path><path d="M725.4 0L681.5 0L700.4 59Z" fill="#00101c" stroke="#001122"></path><path d="M700.4 59L681.5 0L654.5 56Z" fill="#19435d" stroke="#001122"></path><path d="M347.3 0L256.5 0L255.5 80Z" fill="#15384f" stroke="#001122"></path><path d="M900 396L833.2 284L842.2 419Z" fill="#277297" stroke="#001122"></path><path d="M900 396L900 301L833.2 284Z" fill="#205a7a" stroke="#001122"></path><path d="M833.2 284L900 236L789.2 190Z" fill="#15384f" stroke="#001122"></path><path d="M786.2 0L725.4 0L700.4 59Z" fill="#297ea6" stroke="#001122"></path><path d="M900 460L900 396L842.2 419Z" fill="#15384f" stroke="#001122"></path><path d="M900 460L842.2 419L802.2 521Z" fill="#19435d" stroke="#001122"></path><path d="M73.8 209L194.6 250L147.6 164Z" fill="#081a28" stroke="#001122"></path><path d="M73.8 209L72.8 263L194.6 250Z" fill="#297ea6" stroke="#001122"></path><path d="M0 422L63.8 506L104.8 462Z" fill="#297ea6" stroke="#001122"></path><path d="M814.2 34L699.4 137L790.2 177Z" fill="#246688" stroke="#001122"></path><path d="M151.6 59L99.8 170L147.6 164Z" fill="#15384f" stroke="#001122"></path><path d="M900 554L900 460L802.2 521Z" fill="#277297" stroke="#001122"></path><path d="M900 301L900 236L833.2 284Z" fill="#081a28" stroke="#001122"></path><path d="M99.8 170L73.8 209L147.6 164Z" fill="#00101c" stroke="#001122"></path><path d="M202.6 0L151.6 59L255.5 80Z" fill="#00101c" stroke="#001122"></path><path d="M99.8 170L46.8 114L73.8 209Z" fill="#19435d" stroke="#001122"></path><path d="M900 236L900 181L789.2 190Z" fill="#297ea6" stroke="#001122"></path><path d="M764.4 600L855.2 600L802.2 521Z" fill="#081a28" stroke="#001122"></path><path d="M256.5 0L202.6 0L255.5 80Z" fill="#277297" stroke="#001122"></path><path d="M0 366L106.8 366L0 292Z" fill="#277297" stroke="#001122"></path><path d="M0 422L104.8 462L106.8 366Z" fill="#00101c" stroke="#001122"></path><path d="M104.8 462L63.8 506L134.6 496Z" fill="#15384f" stroke="#001122"></path><path d="M900 85L814.2 34L790.2 177Z" fill="#246688" stroke="#001122"></path><path d="M814.2 34L786.2 0L700.4 59Z" fill="#297ea6" stroke="#001122"></path><path d="M855.2 600L900 554L802.2 521Z" fill="#19435d" stroke="#001122"></path><path d="M855.2 600L900 600L900 554Z" fill="#277297" stroke="#001122"></path><path d="M0 292L106.8 366L72.8 263Z" fill="#277297" stroke="#001122"></path><path d="M0 231L72.8 263L73.8 209Z" fill="#1d4e6b" stroke="#001122"></path><path d="M0 231L0 292L72.8 263Z" fill="#277297" stroke="#001122"></path><path d="M900 181L900 85L790.2 177Z" fill="#19435d" stroke="#001122"></path><path d="M814.2 34L900 0L786.2 0Z" fill="#1d4e6b" stroke="#001122"></path><path d="M0 366L0 422L106.8 366Z" fill="#00101c" stroke="#001122"></path><path d="M151.6 59L46.8 114L99.8 170Z" fill="#246688" stroke="#001122"></path><path d="M79.8 0L46.8 114L151.6 59Z" fill="#297ea6" stroke="#001122"></path><path d="M0 177L0 231L73.8 209Z" fill="#0c2435" stroke="#001122"></path><path d="M63.8 506L49.8 600L134.6 496Z" fill="#205a7a" stroke="#001122"></path><path d="M0 500L49.8 600L63.8 506Z" fill="#205a7a" stroke="#001122"></path><path d="M0 422L0 500L63.8 506Z" fill="#297ea6" stroke="#001122"></path><path d="M46.8 114L0 177L73.8 209Z" fill="#0c2435" stroke="#001122"></path><path d="M202.6 0L79.8 0L151.6 59Z" fill="#297ea6" stroke="#001122"></path><path d="M46.8 114L0 80L0 177Z" fill="#112e42" stroke="#001122"></path><path d="M900 85L900 0L814.2 34Z" fill="#246688" stroke="#001122"></path><path d="M0 500L0 600L49.8 600Z" fill="#297ea6" stroke="#001122"></path><path d="M79.8 0L0 80L46.8 114Z" fill="#00101c" stroke="#001122"></path><path d="M79.8 0L0 0L0 80Z" fill="#205a7a" stroke="#001122"></path></g></svg>